inDegrees=no
num_controls=7
num_derivatives=13
num_iterations=126
num_multipliers=7
num_parameters=0
num_slacks=7
num_states=26
objective=5.693272
objective_accelerations=0.645935
objective_balance=0.089940
objective_effort=0.505786
objective_height=4.389960
objective_ligament=0.061652
solver_duration=1400.940543
status=Solve_Succeeded
success=true
DataType=double
version=3
OpenSimVersion=4.4-2022-07-23-0e9fedc
endheader
time	/jointset/ground_pelvis/pelvis_tilt/value	/jointset/ground_pelvis/pelvis_tx/value	/jointset/ground_pelvis/pelvis_ty/value	/jointset/hip_l/hip_flexion_l/value	/jointset/hip_l/hip_adduction_l/value	/jointset/hip_l/hip_rotation_l/value	/jointset/back/lumbar_extension/value	/jointset/patellofemoral_l/patellar_flexion_l/value	/jointset/knee_l/knee_flexion_l/value	/jointset/knee_l/knee_adduction_l/value	/jointset/knee_l/knee_rotation_l/value	/jointset/ankle_l/ankle_angle_l/value	/jointset/subtalar_l/subtalar_angle_l/value	/jointset/ground_pelvis/pelvis_tilt/speed	/jointset/ground_pelvis/pelvis_tx/speed	/jointset/ground_pelvis/pelvis_ty/speed	/jointset/hip_l/hip_flexion_l/speed	/jointset/hip_l/hip_adduction_l/speed	/jointset/hip_l/hip_rotation_l/speed	/jointset/back/lumbar_extension/speed	/jointset/patellofemoral_l/patellar_flexion_l/speed	/jointset/knee_l/knee_flexion_l/speed	/jointset/knee_l/knee_adduction_l/speed	/jointset/knee_l/knee_rotation_l/speed	/jointset/ankle_l/ankle_angle_l/speed	/jointset/subtalar_l/subtalar_angle_l/speed	/forceset/tau_hip_flexion_l	/forceset/tau_hip_adduction_l	/forceset/tau_hip_rotation_l	/forceset/tau_knee_flexion_l	/forceset/tau_ankle_angle_l	/forceset/tau_subtalar_angle_l	/forceset/tau_lumbar_extension	lambda_cid13_p0	lambda_cid13_p1	lambda_cid13_p2	lambda_cid13_p3	lambda_cid13_p4	lambda_cid13_p5	lambda_cid14_p0	/jointset/ground_pelvis/pelvis_tilt/accel	/jointset/ground_pelvis/pelvis_tx/accel	/jointset/ground_pelvis/pelvis_ty/accel	/jointset/hip_l/hip_flexion_l/accel	/jointset/hip_l/hip_adduction_l/accel	/jointset/hip_l/hip_rotation_l/accel	/jointset/back/lumbar_extension/accel	/jointset/patellofemoral_l/patellar_flexion_l/accel	/jointset/knee_l/knee_flexion_l/accel	/jointset/knee_l/knee_adduction_l/accel	/jointset/knee_l/knee_rotation_l/accel	/jointset/ankle_l/ankle_angle_l/accel	/jointset/subtalar_l/subtalar_angle_l/accel	gamma_cid13_p0	gamma_cid13_p1	gamma_cid13_p2	gamma_cid13_p3	gamma_cid13_p4	gamma_cid13_p5	gamma_cid14_p0
0.5	-0.5115218608275894	-0.1056158665404783	0.7531521750067606	1.341691275841805	-0.3113469874213077	-0.07007223929702693	-0.3377879348196376	0.6339383562274807	0.6339383562274939	-0.1741622910606576	0.1743227451039088	-0.03807940022509137	-0.06492681924540283	-0.9246633170919515	-0.3377701548006002	-0.5231964851221018	2.569640752243071	-0.05589503225163087	0.5537732645903741	-0.6124451172464216	1.631161766059446	1.631161766059505	-0.002093830551130087	0.001965851165325566	0.0583962618133422	-0.06072640800138817	-0.2771722118501058	0.01725778735988602	-0.0185335988963725	-0.1812031731617017	0.1802578029006816	0.03945984709829672	0.2392804289385389	18.6213998853867	-22.79275195219677	5.966884540385884	-8.721668818667574	-608.2746975870083	-56.09118568172021	-31.3662097307632	0.6925700324306708	0.8269499780152004	-0.2677507946875715	-1.704834963728315	0.5185586702006101	-0.2066310057142506	1.899021349280844	-0.9972908717082147	-0.9972908717082677	0.02223284679613969	-0.04768053280797169	0.1102394387023592	0.5255099137022817	4.171963239109471e-10	-9.427528189197051e-07	1.778895530001643e-07	-1.667261827756566e-07	-2.029271602482849e-07	1.598726933295118e-07	-1.589121532659293e-07
0.51	-0.5207318603785654	-0.1089518426491859	0.747907933153848	1.3672980170626	-0.3118810786104408	-0.06454661662162503	-0.3438176795746448	0.6501979445539853	0.6501979445539808	-0.1741835007150176	0.1743416691995836	-0.0374904333126127	-0.06550890351965521	-0.9172162334942356	-0.3293971732239291	-0.5255445931880579	2.551374105779819	-0.05093121884621002	0.5512782660965252	-0.5934444519949101	1.62053502060101	1.620535020600978	-0.002146770649794847	0.001822161310894924	0.05936917783016821	-0.05569985238572558	-0.2865045677911212	0.01790824707481629	-0.01860248444710335	-0.1819675298549984	0.1814784050503814	0.04018626535581977	0.2462745816330621	18.73427551814159	-23.00602684628096	5.861564794992147	-8.874351458579262	-613.2820433112292	-55.70602153215842	-30.48638005909963	0.7888181530904634	0.8466238521393978	-0.2022865265080558	-1.937603919095584	0.4842054550623617	-0.2820501843889184	1.909496378421957	-1.128466638709299	-1.128466638722957	-0.0190256329251713	0.002664217958819959	0.08662248883333734	0.4899395176532632	-1.157895691807373e-08	-8.79832027395937e-07	2.134411749140287e-07	-1.527281073863605e-07	-1.951314192934011e-07	1.756619768819804e-07	-1.588214018168016e-07
0.52	-0.5298637809676371	-0.1122032586211981	0.7426434210774852	1.39271208693248	-0.3123657491096567	-0.05904816711375754	-0.349655636224067	0.6663446453747215	0.6663446453747357	-0.1742052334092486	0.1743592318827209	-0.0368925762788334	-0.06604098001131928	-0.9090475247105623	-0.3208581274614974	-0.5272505298121789	2.531106482057693	-0.04601089426681681	0.5483386310759334	-0.5740874961299464	1.608584264910657	1.608584264910535	-0.002198438537531659	0.001693568645218511	0.06017428607342091	-0.05072485148384484	-0.2958369237320156	0.01855870678983273	-0.0186713699974583	-0.1827318865483118	0.182699007200108	0.04091268361343303	0.2532687343276788	18.83868657938385	-23.21997034028586	5.75880812120664	-9.003780046525051	-618.4155998148374	-55.37066557544279	-29.58991515997107	0.8368950696226783	0.8601628151670132	-0.1393165063206058	-2.105030415503284	0.5098609049952492	-0.2955583110627114	1.97027947197173	-1.262092918091634	-1.262092918091623	0.02248728898197054	-0.04466109505736938	0.0766778839872571	0.5151989709459622	-2.806547044310634e-08	-8.08917897015561e-07	2.74451825051366e-07	-1.33470100398925e-07	-1.897936484994514e-07	1.936320692943053e-07	-1.610874621267801e-07
0.53	-0.5389105331676359	-0.1153685546269108	0.7373650625202725	1.417913747459732	-0.3128014361225268	-0.05358115026387357	-0.3552983313108527	0.6823653239054251	0.6823653239054497	-0.174227430809858	0.1743754285131404	-0.03628750152495488	-0.06652356678007552	-0.90018774039406	-0.3121822211043318	-0.5283127926737301	2.508907473000794	-0.04113527553882931	0.5449753203609371	-0.5544076709912457	1.595342869895259	1.595342869895311	-0.002223129389250624	0.001561535450834004	0.06081405925023636	-0.04580234189213957	-0.3050248414470124	0.01906178121477322	-0.0187595307382753	-0.1834124075442558	0.1838024139927296	0.04152314489027627	0.2600762028780896	18.90924948396661	-23.38077682368957	5.651177737436005	-9.072635701477839	-623.4211049984048	-54.95038941736298	-28.68031575815115	0.9277799767518951	0.8741077606353057	-0.07346023070458532	-2.32507835160253	0.475174315459667	-0.3702942284164771	1.973411571528949	-1.386416038232453	-1.386416038206327	-0.01239614942367201	0.004775875144545571	0.05363383362340132	0.4793863160846989	-7.525331092468364e-08	-6.893888650738563e-07	4.855676774224006e-07	-7.931832604986519e-08	-2.043875024179885e-07	2.350963792122809e-07	-1.786771015827595e-07
